HIERARCHY
ROOT root
{
	OFFSET 0.000000 0.000000 0.000000
	CHANNELS 6 Xposition Yposition Zposition Zrotation Yrotation Xrotation
	JOINT lhip
	{
		OFFSET 0.058581 -0.082280 -0.017664
		CHANNELS 3 Zrotation Yrotation Xrotation
		JOINT lknee
		{
			OFFSET 0.043451 -0.386469 0.008037
			CHANNELS 3 Zrotation Yrotation Xrotation
			JOINT lankle
			{
				OFFSET -0.014790 -0.426874 -0.037428
				CHANNELS 3 Zrotation Yrotation Xrotation
				JOINT ltoe
				{
					OFFSET 0.041054 -0.060286 0.122042
					CHANNELS 3 Zrotation Yrotation Xrotation
					End Site
					{
						OFFSET 0.000000 0.000000 0.000000
					}
				}
			}
		}
	}
	JOINT rhip
	{
		OFFSET -0.060310 -0.090513 -0.013543
		CHANNELS 3 Zrotation Yrotation Xrotation
		JOINT rknee
		{
			OFFSET -0.043257 -0.383688 -0.004843
			CHANNELS 3 Zrotation Yrotation Xrotation
			JOINT rankle
			{
				OFFSET 0.019056 -0.420046 -0.034562
				CHANNELS 3 Zrotation Yrotation Xrotation
				JOINT rtoe
				{
					OFFSET -0.034840 -0.062106 0.130323
					CHANNELS 3 Zrotation Yrotation Xrotation
					End Site
					{
						OFFSET 0.000000 0.000000 0.000000
					}
				}
			}
		}
	}
	JOINT lowerback
	{
		OFFSET 0.004439 0.124404 -0.038385
		CHANNELS 3 Zrotation Yrotation Xrotation
		JOINT upperback
		{
			OFFSET 0.004488 0.137956 0.026820
			CHANNELS 3 Zrotation Yrotation Xrotation
			JOINT chest
			{
				OFFSET -0.002265 0.056032 0.002855
				CHANNELS 3 Zrotation Yrotation Xrotation
				JOINT lowerneck
				{
					OFFSET -0.013390 0.211636 -0.033468
					CHANNELS 3 Zrotation Yrotation Xrotation
					JOINT upperneck
					{
						OFFSET 0.010113 0.088937 0.050410
						CHANNELS 3 Zrotation Yrotation Xrotation
						End Site
						{
							OFFSET 0.000000 0.000000 0.000000
						}
					}
				}
				JOINT lclavicle
				{
					OFFSET 0.071702 0.114000 -0.018898
					CHANNELS 3 Zrotation Yrotation Xrotation
					JOINT lshoulder
					{
						OFFSET 0.122921 0.045205 -0.019046
						CHANNELS 3 Zrotation Yrotation Xrotation
						JOINT lelbow
						{
							OFFSET 0.255332 -0.015649 -0.022946
							CHANNELS 3 Zrotation Yrotation Xrotation
							JOINT lwrist
							{
								OFFSET 0.265709 0.012698 -0.007375
								CHANNELS 3 Zrotation Yrotation Xrotation
								End Site
								{
									OFFSET 0.000000 0.000000 0.000000
								}
							}
						}
					}
				}
				JOINT rclavicle
				{
					OFFSET -0.082954 0.112472 -0.023707
					CHANNELS 3 Zrotation Yrotation Xrotation
					JOINT rshoulder
					{
						OFFSET -0.113228 0.046853 -0.008472
						CHANNELS 3 Zrotation Yrotation Xrotation
						JOINT relbow
						{
							OFFSET -0.260127 -0.014369 -0.031269
							CHANNELS 3 Zrotation Yrotation Xrotation
							JOINT rwrist
							{
								OFFSET -0.269108 0.006794 -0.006027
								CHANNELS 3 Zrotation Yrotation Xrotation
								End Site
								{
									OFFSET 0.000000 0.000000 0.000000
								}
							}
						}
					}
				}
			}
		}
	}
}
MOTION
Frames: 16
Frame Time: 0.033333
-0.100836 1.100407 0.998002 -3.038652 -1.727423 88.723498 0.719117 1.141146 7.843276 0.481784 -11.402639 -8.922854 1.259324 9.161095 -4.087571 0.000000 -0.000000 0.000000 -4.596781 -0.724579 0.093817 -2.243968 5.150411 2.720743 4.730050 -5.810745 -5.607025 0.000000 -0.000000 0.000000 -0.115697 1.462208 0.502177 -1.126613 -0.714867 2.936860 -2.483977 1.388948 -1.264597 -2.405703 0.668141 -1.561788 0.080816 1.271921 2.765395 -22.418083 6.734841 -2.929249 -59.263922 -2.583083 15.547316 8.982318 -22.538156 8.453176 -7.275961 -4.933509 6.090910 23.507389 -1.692973 -1.142497 57.986113 3.009099 16.320800 -2.615131 19.007130 8.839886 10.298117 2.519891 4.211580 
-0.100869 1.100159 0.998123 -2.953137 -1.678980 88.732773 0.802460 1.133651 7.824046 0.441674 -11.386077 -8.879786 1.165066 9.096937 -4.079515 0.000000 -0.000000 0.000000 -4.541043 -0.846778 0.156903 -2.258261 5.169334 2.636595 4.831279 -5.846254 -5.661562 0.000000 -0.000000 0.000000 -0.030544 1.402550 0.465945 -1.148599 -0.782898 2.774197 -2.496127 1.230566 -1.061533 -2.357426 0.671879 -1.992185 0.014925 1.212181 2.849272 -22.594444 7.143453 -3.111825 -59.078418 -2.656510 15.455351 8.723048 -22.528991 8.870116 -7.211103 -4.960328 6.046266 23.637947 -1.844478 -1.188988 57.858734 3.221309 16.448336 -2.486107 18.937365 8.963940 10.097505 2.451622 4.326658 
-0.100817 1.100216 0.998013 -3.004333 -1.697477 88.697810 0.784545 1.189867 7.850376 0.431997 -11.360000 -8.862894 1.204230 9.065804 -4.128337 0.000000 -0.000000 0.000000 -4.581124 -0.823273 0.152892 -2.240180 5.170656 2.712906 4.886137 -5.820303 -5.631955 0.000000 -0.000000 0.000000 -0.083176 1.461288 0.359343 -1.112027 -0.764242 3.068484 -2.496119 1.391907 -1.308333 -2.394376 0.619370 -1.611934 0.045411 1.185612 2.693094 -22.454331 6.853238 -2.839189 -59.193716 -2.689461 15.423468 8.812585 -22.567470 8.699424 -7.257103 -4.792702 6.126341 23.491862 -1.770300 -1.156063 57.972840 2.988447 16.286566 -2.550430 19.067225 8.905021 10.129776 2.458746 4.270520 
-0.100880 1.100122 0.998084 -3.054801 -1.668801 88.631150 0.831085 1.207714 7.961536 0.421924 -11.331513 -8.916561 1.164228 9.065035 -4.115608 0.000000 -0.000000 0.000000 -4.557004 -0.820611 0.237796 -2.244981 5.199096 2.673998 4.843122 -5.734598 -5.631675 0.000000 -0.000000 0.000000 -0.036499 1.415505 0.438379 -1.139830 -0.724881 2.994762 -2.490474 1.299866 -1.137633 -2.346889 0.772858 -1.836165 0.038521 1.157586 2.593025 -22.564163 7.141506 -3.007897 -59.062325 -2.693312 15.345081 8.723739 -22.678464 8.980449 -7.344376 -4.931330 6.102903 23.569897 -1.920750 -1.196102 57.920691 3.312638 16.290729 -2.384177 18.845040 9.085749 10.168412 2.368229 4.427721 
-0.100816 1.100165 0.998036 -3.023320 -1.674885 88.667787 0.820956 1.225715 7.871063 0.426713 -11.341696 -8.846491 1.163424 9.049563 -4.114936 0.000000 -0.000000 0.000000 -4.570027 -0.834984 0.218618 -2.237484 5.170829 2.641140 4.811114 -5.769416 -5.657416 0.000000 -0.000000 0.000000 -0.067233 1.425318 0.352537 -1.120610 -0.751458 2.993322 -2.476787 1.358172 -1.293449 -2.378838 0.642206 -1.545291 0.065220 1.154424 2.592689 -22.427079 7.051408 -2.865347 -59.200300 -2.639109 15.414139 8.752588 -22.533680 8.898778 -7.282257 -4.944818 6.059456 23.414785 -1.874520 -1.185548 58.056918 3.126626 16.318155 -2.373075 18.806905 9.137141 10.127264 2.426417 4.289774 
-0.100754 1.100189 0.997970 -3.003129 -1.690560 88.657848 0.800060 1.183183 7.910838 0.423364 -11.388901 -8.880853 1.099759 9.090371 -4.151104 0.000000 -0.000000 0.000000 -4.594920 -0.824157 0.207337 -2.232691 5.150794 2.673387 4.901391 -5.751453 -5.642361 0.000000 -0.000000 0.000000 -0.102117 1.436266 0.313721 -1.118918 -0.748916 3.031637 -2.464363 1.396472 -1.273179 -2.332727 0.628095 -1.210424 0.088652 1.160559 2.361676 -22.385628 6.945649 -2.839037 -59.249979 -2.646220 15.449529 8.828629 -22.468514 8.843600 -7.286902 -5.023565 6.119351 23.341664 -1.854044 -1.171478 58.144242 3.083471 16.290064 -2.414411 18.785525 9.079931 10.104440 2.464872 4.215018 
-0.100707 1.100218 0.997908 -3.069064 -1.676311 88.680614 0.804989 1.217195 7.855509 0.423629 -11.381990 -8.851024 1.097617 9.050371 -4.065387 0.000000 -0.000000 0.000000 -4.579774 -0.795363 0.153462 -2.232432 5.181339 2.694558 4.857869 -5.715328 -5.660788 0.000000 -0.000000 0.000000 -0.093833 1.464293 0.246309 -1.099506 -0.734887 3.078110 -2.477739 1.421544 -1.295307 -2.377019 0.613184 -1.056295 0.090520 1.138359 2.152645 -22.371966 7.014600 -2.886385 -59.233661 -2.595175 15.418811 8.831636 -22.594452 8.689497 -7.410009 -4.956011 6.112980 23.349200 -1.883735 -1.238112 58.136201 2.993741 16.305605 -2.394905 18.836823 9.095650 10.264787 2.503871 4.223036 
-0.100645 1.100103 0.998153 -3.037738 -1.689910 88.554245 0.765636 1.178395 8.006915 0.456960 -11.419929 -8.858102 1.153110 9.024018 -4.128605 0.000000 -0.000000 0.000000 -4.599614 -0.851099 0.325318 -2.232958 5.185211 2.669105 4.899769 -5.721010 -5.607916 0.000000 -0.000000 0.000000 -0.069822 1.430743 0.306970 -1.124753 -0.739257 3.049649 -2.449898 1.224644 -1.154849 -2.481412 0.520032 -1.443373 -0.006953 1.041749 2.475588 -22.581614 7.271758 -3.013736 -59.034143 -2.617431 15.294472 8.740243 -22.704007 8.805372 -7.413072 -4.819429 6.068478 23.474078 -1.967923 -1.207650 57.970919 3.170089 16.352145 -2.351476 19.005891 9.071775 10.263815 2.394494 4.342582 
-0.100531 1.100039 0.997847 -3.047572 -1.674801 88.594130 0.755837 1.243428 7.997366 0.536482 -11.428072 -8.964902 1.142220 8.989592 -4.094793 0.000000 -0.000000 0.000000 -4.577160 -0.871474 0.271417 -2.267933 5.197069 2.634491 4.869398 -5.699713 -5.640313 0.000000 -0.000000 0.000000 -0.106368 1.474614 0.205166 -1.067510 -0.758202 3.165422 -2.440533 1.386875 -1.253573 -2.496825 0.466730 -1.043863 0.043627 1.031472 2.029183 -22.428049 6.962270 -2.885241 -59.221302 -2.538398 15.382664 8.889728 -22.698769 8.457009 -7.380085 -4.827028 6.019788 23.324422 -1.948568 -1.361517 58.117547 2.871006 16.218091 -2.424971 19.077381 9.039805 10.390122 2.464373 4.281025 
-0.100543 1.100032 0.997726 -3.045784 -1.640488 88.554708 0.804094 1.220921 8.066676 0.519037 -11.367918 -9.025318 1.131631 9.009157 -4.034883 0.000000 -0.000000 0.000000 -4.539990 -0.872515 0.316375 -2.256800 5.195845 2.623210 4.864497 -5.718518 -5.664261 0.000000 -0.000000 0.000000 -0.007616 1.391609 0.331994 -1.135032 -0.737849 2.838073 -2.447910 1.217877 -0.992813 -2.451748 0.583908 -1.588826 -0.046852 1.023357 2.572577 -22.484089 7.274572 -3.009003 -59.152402 -2.572541 15.273399 8.774562 -22.698311 8.744139 -7.218895 -4.832148 5.779044 23.446320 -2.095606 -1.301928 58.025827 3.206182 16.371469 -2.260677 18.967204 9.293404 10.218424 2.424526 4.357314 
-0.100454 1.100188 0.997849 -3.026439 -1.701242 88.542216 0.729277 1.216097 8.033344 0.500240 -11.390803 -8.941281 1.158253 9.001402 -4.050340 0.000000 -0.000000 0.000000 -4.629812 -0.833296 0.324989 -2.224925 5.178444 2.652764 4.889089 -5.730781 -5.613115 0.000000 -0.000000 0.000000 -0.086672 1.425962 0.177559 -1.109251 -0.729859 3.093379 -2.473916 1.137483 -1.048571 -2.429895 0.500153 -1.686255 -0.059738 0.841501 2.417059 -22.585993 7.405310 -3.149075 -59.103599 -2.653205 15.329520 8.792494 -22.639071 8.718542 -7.442945 -4.732550 6.032312 23.581774 -2.098835 -1.301455 57.937139 3.254580 16.469659 -2.347238 18.991011 9.141377 10.260399 2.383983 4.436305 
-0.100339 1.100163 0.997866 -3.050874 -1.715427 88.508653 0.703905 1.230974 8.071483 0.498481 -11.392014 -8.922050 1.204911 9.028447 -4.025100 0.000000 -0.000000 0.000000 -4.660043 -0.853762 0.345677 -2.217280 5.182655 2.677365 4.870973 -5.729045 -5.666918 0.000000 -0.000000 0.000000 -0.098483 1.433049 0.166840 -1.109915 -0.715965 3.057349 -2.478646 1.150113 -1.014531 -2.419636 0.337431 -1.582935 -0.086221 0.753294 2.546299 -22.589452 7.479010 -3.188549 -59.132328 -2.631250 15.337545 8.754017 -22.697222 8.769452 -7.383799 -4.682117 6.051647 23.619434 -2.137326 -1.217987 57.946747 3.250762 16.466945 -2.409088 19.070096 9.081568 10.150446 2.359486 4.472638 
-0.100277 1.100089 0.997862 -3.092236 -1.710117 88.464914 0.707292 1.267547 8.171458 0.522079 -11.413164 -9.008155 1.214895 9.059620 -4.068770 0.000000 -0.000000 0.000000 -4.650007 -0.811164 0.428665 -2.245150 5.273251 2.624349 4.881459 -5.723795 -5.644842 0.000000 -0.000000 0.000000 -0.101759 1.457651 0.129236 -1.087628 -0.706756 3.127892 -2.466782 1.181095 -1.049949 -2.402333 0.282763 -1.555317 -0.081949 0.785522 2.395800 -22.606594 7.451326 -3.226182 -59.168641 -2.605560 15.344635 8.699366 -22.511964 8.840820 -7.685999 -4.703129 6.194934 23.594740 -2.124406 -1.283628 57.951693 3.155215 16.441134 -2.443680 19.066527 9.144879 10.324088 2.433902 4.567014 
-0.100112 1.100270 0.997819 -3.111784 -1.738203 88.497172 0.653455 1.231164 8.158611 0.533314 -11.384588 -9.068466 1.267191 9.042805 -3.992711 0.000000 -0.000000 0.000000 -4.696748 -0.781346 0.347040 -2.250537 5.203963 2.672144 4.919795 -5.694542 -5.632109 0.000000 -0.000000 0.000000 -0.125382 1.436583 0.105081 -1.073124 -0.714745 3.115367 -2.460503 1.184099 -1.183807 -2.406767 0.231432 -1.442807 -0.094165 0.748842 2.569242 -22.506849 7.485109 -3.141020 -59.343879 -2.599440 15.395562 8.772330 -22.435519 8.799094 -7.662470 -4.766865 6.152708 23.504649 -2.152535 -1.174527 58.061216 3.068474 16.464460 -2.469538 19.155063 9.062917 10.249829 2.398867 4.398055 
-0.100024 1.100242 0.997777 -3.136980 -1.726545 88.486572 0.675218 1.281001 8.191294 0.516158 -11.414320 -9.094089 1.272299 9.052936 -4.031777 0.000000 -0.000000 0.000000 -4.704639 -0.814370 0.327072 -2.215655 5.206346 2.710476 4.938188 -5.663082 -5.629207 0.000000 -0.000000 0.000000 -0.096555 1.431579 0.035451 -1.080982 -0.739484 3.145010 -2.503821 1.212115 -1.224787 -2.333989 0.253394 -1.351053 0.056220 0.704681 2.589162 -22.467189 7.413126 -3.074280 -59.402219 -2.568656 15.494153 8.767955 -22.334812 8.989985 -7.580573 -4.690911 6.379810 23.452954 -2.076417 -1.127416 58.162292 3.005728 16.437058 -2.510048 19.049911 9.002601 10.280231 2.406843 4.325486 
-0.099979 1.100318 0.997731 -3.155287 -1.742550 88.450994 0.666672 1.313374 8.231505 0.512957 -11.440328 -9.125388 1.283764 9.074955 -3.935030 0.000000 -0.000000 0.000000 -4.715222 -0.817073 0.385563 -2.244473 5.232513 2.648097 4.897189 -5.698868 -5.623101 0.000000 -0.000000 0.000000 -0.108798 1.441693 -0.023467 -1.084446 -0.737563 3.241593 -2.503932 1.178972 -1.226148 -2.339539 0.206037 -1.320920 0.052030 0.637075 2.492328 -22.558738 7.379580 -3.046902 -59.343084 -2.580999 15.420723 8.826558 -22.389196 8.827781 -7.786263 -4.698739 6.443638 23.508516 -2.043543 -1.141588 58.116836 2.971548 16.376159 -2.570544 19.075657 8.867502 10.440155 2.396854 4.371958 
